<?xml version="1.0" encoding="UTF-8"?>
<!DOCTYPE svg PUBLIC "-//W3C//DTD SVG 1.1//EN" "http://www.w3.org/Graphics/SVG/1.1/DTD/svg11.dtd">
<!-- Creator: CorelDRAW X7 -->
<svg xmlns="http://www.w3.org/2000/svg" xml:space="preserve" width="4.93436in" height="5.62953in" version="1.1" style="shape-rendering:geometricPrecision; text-rendering:geometricPrecision; image-rendering:optimizeQuality; fill-rule:evenodd; clip-rule:evenodd"
viewBox="0 0 3512 4006"
 xmlns:xlink="http://www.w3.org/1999/xlink">
 <defs>
  <style type="text/css">
   <![CDATA[
    .fil0 {fill:black;fill-rule:nonzero}
   ]]>
  </style>
 </defs>
 <g id="Layer_x0020_1">
  <metadata id="CorelCorpID_0Corel-Layer"/>
  <path class="fil0" d="M2080 851c-176,-1 -336,-1 -514,3 -33,-1 -44,29 -49,54 -59,262 -115,525 -171,788 -125,583 -250,1166 -374,1749 -9,37 -14,75 -24,130l1443 -392 -14 21c-532,266 -1064,533 -1597,799 -10,5 -27,6 -24,-10 49,-277 113,-558 167,-857 -306,94 -611,185 -920,279 -4,2 -3,2 -2,-2 18,-89 30,-159 46,-228 227,-1021 454,-2041 681,-3062 33,-149 187,-121 307,-121 316,1 1278,-19 1549,49 445,111 723,392 868,821 128,380 33,728 -126,1070 -125,266 -305,490 -542,663 -66,48 -153,72 -234,94 -264,75 -528,143 -793,214 -69,18 -79,10 -64,-60 139,-639 275,-1263 413,-1903 25,-82 -3,-99 -26,-99z"/>
 </g>
</svg>
